<svg width="24" height="24" fill="none" xmlns="http://www.w3.org/2000/svg"><path d="M22.598 15.538c.678-2.285.12-4.879-.472-6.676a.44.44 0 0 0-.058-.196 16.278 16.278 0 0 0-.547-1.41.835.835 0 0 0 .489-.767V3.016c0-.461-.347-.834-.775-.834h-9.518c-.214 0-.388.186-.388.416v.026c.132 2.502-.038 4.199-.53 5.396a.359.359 0 0 0-.027.037.435.435 0 0 0 0 .063 4.344 4.344 0 0 1-.752 1.18l-.034.025v.029a5.589 5.589 0 0 1-1.55 1.126c-.996.476-2.018.885-3.06 1.226l-.198.07c-3.622 1.293-4.094 3.637-4.086 4.813a.43.43 0 0 0 0 .05v2.977c0 .145.07.28.185.355a10.858 10.858 0 0 0 2.848 1.326c.206.062.42-.067.477-.289a.448.448 0 0 0 .015-.128v-.096h.57v.417a.41.41 0 0 0 .324.417c.337.058.674.104 1.004.133.108.01.214-.03.294-.108a.433.433 0 0 0 .124-.309v-.525h.57v.592c0 .23.173.417.387.417.325 0 .65 0 1-.05.201-.017.356-.2.356-.417v-.542h.57v.367c-.004.23.168.42.381.422a.36.36 0 0 0 .068-.005 12.356 12.356 0 0 0 2.095-.538l.062-.03c2.712-1.667 4.432-.295 4.501-.237a.37.37 0 0 0 .237.088h.48c.214 0 .387-.187.387-.417v-.705h.554v.696c0 .23.174.417.388.417h1.247c.214 0 .387-.187.387-.417v-.696h.574v.696c0 .23.173.417.387.417h.957c.214 0 .387-.187.387-.417v-4.495a.411.411 0 0 0-.31-.417ZM13.406 3.024h7.81v3.453h-7.81V3.024Zm-4.87 8.315.005.025a6.9 6.9 0 0 1 .875.921.834.834 0 0 0-.104.418c-.003.44.326.798.735.801.408.003.742-.351.744-.791.003-.415-.29-.762-.674-.799a6.289 6.289 0 0 0-.833-.988 6.03 6.03 0 0 0 .973-.742c.375.38.725.788 1.046 1.222-.135.415.068.87.454 1.014.386.145.808-.074.943-.489.134-.415-.07-.87-.455-1.015a.694.694 0 0 0-.249-.044h-.093c-.34-.46-.71-.894-1.108-1.297.185-.245.348-.507.488-.784.6.336 1.18.712 1.736 1.126-.004.444.328.808.74.812.413.004.751-.353.755-.797.004-.445-.328-.808-.74-.812a.703.703 0 0 0-.34.084 16.907 16.907 0 0 0-1.825-1.16c.422-1.209.604-2.814.519-5.003h.507v3.452c0 .461.347.834.775.834h7.26c.1.221.27.605.456 1.105h-.158c-2.354.019-4.248 2.087-4.23 4.62.009 1.44.646 2.791 1.72 3.65-3.134.888-7.849 1.943-11.815 1.667.732-3.148-.144-5.087-.713-5.938a24.702 24.702 0 0 0 2.607-1.092Zm-3.385 1.33c.419.53 1.51 2.31.71 5.584a9.235 9.235 0 0 1-3.975-1.293 2.848 2.848 0 0 1-.027-.288v-.029c-.031-.888.278-2.81 3.292-3.974Zm16.8 7.364v-.696c0-.23-.173-.417-.387-.417H20.22c-.214 0-.387.187-.387.417v.696h-.477v-.696c0-.23-.173-.417-.387-.417h-1.337c-.214 0-.387.187-.387.417v.68c-.527-.355-2.452-1.385-5.183.258-.486.173-.981.312-1.484.417v-.288c0-.23-.173-.417-.387-.417H8.854c-.213 0-.387.187-.387.417v.572H8.27v-.584c0-.23-.174-.417-.388-.417H6.538c-.214 0-.387.187-.387.417v.496l-.198-.03v-.466c0-.23-.173-.417-.387-.417H4.222a.398.398 0 0 0-.388.367 10.081 10.081 0 0 1-1.975-.955v-1.493c1.688.963 3.873 1.326 6.197 1.326 6.175 0 13.24-2.544 14.074-2.848l.004 3.661h-.183Zm-.19-4.4c-.329.118-1.138.418-2.258.739-1.733-.903-2.458-3.147-1.62-5.013.575-1.276 1.768-2.095 3.085-2.118.152-.002.305.006.457.025l.003.013c.57 1.768 1.081 4.29.334 6.355Z" fill="#0266C1"/><path d="M14.898 3.529c-.623 0-1.127.543-1.127 1.213.002.67.505 1.211 1.127 1.213.622 0 1.127-.543 1.127-1.213s-.505-1.213-1.127-1.213Zm0 1.593c-.195 0-.353-.17-.353-.38s.158-.38.353-.38c.194 0 .352.17.352.38s-.158.38-.352.38Z" fill="#0266C1"/></svg>