<svg width="24" height="24" fill="none" xmlns="http://www.w3.org/2000/svg"><g clip-path="url(#a)"><path d="M19.792 9.564h-5.844c-1.829 0-3.312 1.494-3.312 3.336 0 1.843 1.483 3.337 3.312 3.337h2.532c1.83 0 3.312 1.493 3.312 3.336 0 1.842-1.483 3.336-3.312 3.336H4.208m3.117-5.53c0-1.735-1.396-3.14-3.117-3.14-1.722 0-3.117 1.405-3.117 3.14v.117c0 .689.216 1.36.618 1.917l2.493 3.452c.003.004.009.004.012 0l2.492-3.452a3.274 3.274 0 0 0 .619-1.917v-.118ZM4.81 16.085l.019.009c.377.18.652.523.747.933a1.393 1.393 0 0 1-1.352 1.702h-.033a1.39 1.39 0 0 1-1.351-1.703c.094-.409.37-.753.746-.932l.02-.01a1.4 1.4 0 0 1 1.204 0ZM22.91 4.253c0-1.734-1.395-3.162-3.117-3.162-1.721 0-3.117 1.428-3.117 3.162 0 .682.218 1.352.622 1.9l2.489 3.368c.003.004.01.004.012 0l2.489-3.369a3.207 3.207 0 0 0 .622-1.9Zm-2.523-1.36.043.019a1.337 1.337 0 0 1 .462 2.057l-.014.016a1.358 1.358 0 0 1-1.048.495h-.074c-.405 0-.789-.181-1.047-.495l-.014-.016a1.337 1.337 0 0 1 .462-2.057l.042-.02a1.407 1.407 0 0 1 1.188 0Z" stroke="#0266C1" stroke-linecap="round"/></g><defs><clipPath id="a"><path fill="#fff" d="M0 0h24v24H0z"/></clipPath></defs></svg>