<svg width="45" height="45" fill="none" xmlns="http://www.w3.org/2000/svg"><g clip-path="url(#a)"><path fill="#fff" d="M1 1h43v42H1z"/><path d="m16.731 28.244 3.768-3.885 4.286 3.885h7.348l-11.681-11.24-11.587 11.24h7.866Z" fill="#2D383F"/><path d="m27.518 10.205-5.558 5.55 3.674 3.7 1.884-1.85L37.833 27.69c-2.355 6.152-8.384 10.547-15.496 10.547-9.138 0-16.533-7.262-16.533-16.236.047-8.974 7.442-16.236 16.58-16.236 8.101 0 14.884 5.782 16.25 13.322l4.992 5.18c.094-.74.142-1.526.142-2.266 0-5.597-2.214-10.87-6.265-14.848C33.453 3.174 28.083 1 22.383 1 16.639 1 11.316 3.174 7.265 7.152 3.214 11.13 1 16.357 1 22c0 5.643 2.214 10.87 6.264 14.848C11.315 40.826 16.684 43 22.384 43c5.699 0 11.069-2.174 15.12-6.152 2.495-2.451 4.285-5.366 5.274-8.557.189-.555.33-1.157.471-1.712l-4.333-4.486-11.398-11.888Z" fill="#2D383F"/></g><defs><clipPath id="a"><path fill="#fff" transform="translate(1 1)" d="M0 0h43v42H0z"/></clipPath></defs></svg>
