<svg width="12" height="12" fill="none" xmlns="http://www.w3.org/2000/svg"><path d="M11.196 6.754a.382.382 0 0 0-.32.07c-.363.308-.781.56-1.241.727a3.873 3.873 0 0 1-1.408.252c-1.13 0-2.161-.462-2.9-1.203a4.121 4.121 0 0 1-1.2-2.91c0-.476.085-.937.224-1.357a3.76 3.76 0 0 1 .67-1.203.358.358 0 0 0-.057-.504c-.097-.07-.209-.098-.32-.07a5.625 5.625 0 0 0-2.956 1.987 5.553 5.553 0 0 0 .474 7.289 5.49 5.49 0 0 0 3.904 1.622 5.532 5.532 0 0 0 3.415-1.189 5.518 5.518 0 0 0 1.952-3.063c.07-.21-.042-.406-.237-.448ZM9.063 9.678A4.776 4.776 0 0 1 2.706 9.3a4.81 4.81 0 0 1-1.408-3.4c0-1.105.362-2.112.99-2.924A4.797 4.797 0 0 1 3.89 1.633a4.67 4.67 0 0 0-.46 2.07c0 1.33.543 2.547 1.408 3.415A4.808 4.808 0 0 0 8.24 8.53c.585 0 1.143-.098 1.659-.294.18-.07.362-.14.53-.224a5.086 5.086 0 0 1-1.367 1.665Z" fill="#fff"/></svg>
